<svg width="48" height="64" viewBox="0 0 48 64" fill="none" xmlns="http://www.w3.org/2000/svg">
<path d="M24 64C23.8 64 23.6 63.9001 23.4 63.8002L0.4 46.8134C0.2 46.6136 0 46.3138 0 46.014V1.04918C0 0.749414 0.2 0.349727 0.5 0.149883C0.8 -0.049961 1.2 -0.049961 1.5 0.149883L10.7 4.74629L13.2 0.549571C13.3 0.249805 13.6 0.049961 14 0.049961H34C34.4 0.049961 34.7 0.249805 34.9 0.549571L37.4 4.74629L46.6 0.149883C46.9 -0.049961 47.3 0.049961 47.6 0.149883C47.9 0.249805 48 0.749414 48 1.04918V46.014C48 46.3138 47.8 46.6136 47.6 46.8134L24.6 63.8002C24.4 63.9001 24.2 64 24 64ZM2 45.5144L24 61.8017L46 45.5144V2.64793L37.4 6.94457C36.9 7.14442 36.4 7.0445 36.1 6.54489L33.4 2.0484H14.6L11.9 6.54489C11.6 7.0445 11 7.14442 10.6 6.94457L2 2.64793V45.5144Z" fill="#04AFFF"/>
<path d="M24 59.0039C23.8 59.0039 23.6 58.904 23.4 58.8041L4.4 44.815C4.2 44.6151 4 44.3154 4 44.0156V3.04762H6V43.516L24 56.8056L42 43.516V3.04762H44V44.0156C44 44.3154 43.8 44.6151 43.6 44.815L24.6 58.8041C24.4 58.904 24.2 59.0039 24 59.0039Z" fill="#04AFFF"/>
<path d="M12 6.04528H10V11.0414H12V6.04528Z" fill="#04AFFF"/>
<path d="M38 6.04528H36V11.0414H38V6.04528Z" fill="#04AFFF"/>
<path d="M24 27.0289C19.6 27.0289 16 23.4317 16 19.0351C16 14.6386 19.6 11.0414 24 11.0414C28.4 11.0414 32 14.6386 32 19.0351C32 23.4317 28.4 27.0289 24 27.0289ZM24 13.0398C20.7 13.0398 18 15.7377 18 19.0351C18 22.3326 20.7 25.0304 24 25.0304C27.3 25.0304 30 22.3326 30 19.0351C30 15.7377 27.3 13.0398 24 13.0398Z" fill="#04AFFF"/>
<path d="M29 36.0219H25V26.0297H27V34.0234H29V36.0219Z" fill="#04AFFF"/>
<path d="M27 47.0133H21V26.0297H23V45.0148H25V42.0172H27V40.0187H25V38.0203H29V44.0156H27V47.0133Z" fill="#04AFFF"/>
<path d="M26 15.0383H22V17.0367H26V15.0383Z" fill="#04AFFF"/>
<path d="M12 13.0398H10V15.0383H12V13.0398Z" fill="#04AFFF"/>
<path d="M12 17.0367H10V19.0351H12V17.0367Z" fill="#04AFFF"/>
<path d="M12 21.0336H10V23.032H12V21.0336Z" fill="#04AFFF"/>
<path d="M38 13.0398H36V15.0383H38V13.0398Z" fill="#04AFFF"/>
<path d="M38 17.0367H36V19.0351H38V17.0367Z" fill="#04AFFF"/>
<path d="M38 21.0336H36V23.032H38V21.0336Z" fill="#04AFFF"/>
</svg>
