<svg width="42" height="64" viewBox="0 0 42 64" fill="none" xmlns="http://www.w3.org/2000/svg">
<path d="M27 60H15C13.9 60 13 59.1 13 58V55H15V58H27V55H29V58C29 59.1 28.1 60 27 60Z" fill="#04AFFF"/>
<path d="M23 64H19C17.9 64 17 63.1 17 62V59H19V62H23V59H25V62C25 63.1 24.1 64 23 64Z" fill="#04AFFF"/>
<path d="M31 54H11V56H31V54Z" fill="#04AFFF"/>
<path d="M31 50H11V52H31V50Z" fill="#04AFFF"/>
<path d="M28 18H26V20H28V18Z" fill="#04AFFF"/>
<path d="M32 22H30V24H32V22Z" fill="#04AFFF"/>
<path d="M24 18H22V20H24V18Z" fill="#04AFFF"/>
<path d="M32 18H30V20H32V18Z" fill="#04AFFF"/>
<path d="M32 26H30V28H32V26Z" fill="#04AFFF"/>
<path d="M16 22H14V24H16V22Z" fill="#04AFFF"/>
<path d="M12 22H10V24H12V22Z" fill="#04AFFF"/>
<path d="M20 22H18V24H20V22Z" fill="#04AFFF"/>
<path d="M16 26H14V28H16V26Z" fill="#04AFFF"/>
<path d="M12 26H10V28H12V26Z" fill="#04AFFF"/>
<path d="M12 18H10V20H12V18Z" fill="#04AFFF"/>
<path d="M28 14H26V16H28V14Z" fill="#04AFFF"/>
<path d="M24 14H22V16H24V14Z" fill="#04AFFF"/>
<path d="M32 14H30V16H32V14Z" fill="#04AFFF"/>
<path d="M12 14H10V16H12V14Z" fill="#04AFFF"/>
<path d="M28 10H26V12H28V10Z" fill="#04AFFF"/>
<path d="M24 10H22V12H24V10Z" fill="#04AFFF"/>
<path d="M16 10H14V12H16V10Z" fill="#04AFFF"/>
<path d="M20 10H18V12H20V10Z" fill="#04AFFF"/>
<path d="M28 30H26V32H28V30Z" fill="#04AFFF"/>
<path d="M24 30H22V32H24V30Z" fill="#04AFFF"/>
<path d="M16 30H14V32H16V30Z" fill="#04AFFF"/>
<path d="M20 30H18V32H20V30Z" fill="#04AFFF"/>
<path d="M20 26H18V28H20V26Z" fill="#04AFFF"/>
<path d="M20 20H14V14H20V20ZM16 18H18V16H16V18Z" fill="#04AFFF"/>
<path d="M28 28H22V22H28V28ZM24 26H26V24H24V26Z" fill="#04AFFF"/>
<path d="M30 48H12C11.6 48 11.2 47.7 11 47.3L8.1 37.6C3 33.6 0 27.6 0 21C0 20.6 0.2 20.3 0.5 20.1C0.8 19.9 1.2 19.9 1.5 20.1L6.5 23.1L5.5 24.8L2.1 22.8C2.6 28.1 5.3 32.9 9.6 36.2C9.8 36.3 9.9 36.5 10 36.7L12.8 46H29.3L32.1 36.7L34 37.3L31 47.3C30.8 47.7 30.4 48 30 48Z" fill="#04AFFF"/>
<path d="M21 42C20.6 42 20.2 41.8 20.1 41.4C19.9 41 20 40.6 20.3 40.3L25.3 35.3L26.7 36.7L23.6 39.8C32.8 38.6 40 30.6 40 21C40 19.1 39.7 17.1 39.1 15.3C38.5 13.2 37.5 11.3 36.2 9.6L37.8 8.4C39.2 10.3 40.3 12.4 41 14.7C41.6 16.7 42 18.8 42 21C42 32.6 32.6 42 21 42Z" fill="#04AFFF"/>
<path d="M3 15.3L1 14.7C3.8 5.9 11.9 0 21 0C25.6 0 29.9 1.5 33.6 4.2C33.8 4.3 33.9 4.5 33.9 4.7C34.1 5.2 33.8 5.8 33.3 6L27.3 8L26.7 6.1L30.8 4.7C27.8 2.9 24.5 2 21 2C12.7 2 5.5 7.3 3 15.3Z" fill="#04AFFF"/>
</svg>
