<svg width="65" height="64" viewBox="0 0 65 64" fill="none" xmlns="http://www.w3.org/2000/svg">
<path d="M14.5 31H7.5V33H14.5V31Z" fill="#04AFFF"/>
<path d="M4.5 36C2.3 36 0.5 34.2 0.5 32C0.5 29.8 2.3 28 4.5 28C6.7 28 8.5 29.8 8.5 32C8.5 34.2 6.7 36 4.5 36ZM4.5 30C3.4 30 2.5 30.9 2.5 32C2.5 33.1 3.4 34 4.5 34C5.6 34 6.5 33.1 6.5 32C6.5 30.9 5.6 30 4.5 30Z" fill="#04AFFF"/>
<path d="M11.0601 18.1703L9.95074 19.8345L15.9419 23.8283L17.0513 22.1641L11.0601 18.1703Z" fill="#04AFFF"/>
<path d="M8.5 22C6.3 22 4.5 20.2 4.5 18C4.5 15.8 6.3 14 8.5 14C10.7 14 12.5 15.8 12.5 18C12.5 20.2 10.7 22 8.5 22ZM8.5 16C7.4 16 6.5 16.9 6.5 18C6.5 19.1 7.4 20 8.5 20C9.6 20 10.5 19.1 10.5 18C10.5 16.9 9.6 16 8.5 16Z" fill="#04AFFF"/>
<path d="M18.5 12C16.3 12 14.5 10.2 14.5 8C14.5 5.8 16.3 4 18.5 4C20.7 4 22.5 5.8 22.5 8C22.5 10.2 20.7 12 18.5 12ZM18.5 6C17.4 6 16.5 6.9 16.5 8C16.5 9.1 17.4 10 18.5 10C19.6 10 20.5 9.1 20.5 8C20.5 6.9 19.6 6 18.5 6Z" fill="#04AFFF"/>
<path d="M20.3362 9.45044L18.672 10.5598L22.6658 16.551L24.33 15.4416L20.3362 9.45044Z" fill="#04AFFF"/>
<path d="M57.5 31H50.5V33H57.5V31Z" fill="#04AFFF"/>
<path d="M60.5 36C58.3 36 56.5 34.2 56.5 32C56.5 29.8 58.3 28 60.5 28C62.7 28 64.5 29.8 64.5 32C64.5 34.2 62.7 36 60.5 36ZM60.5 30C59.4 30 58.5 30.9 58.5 32C58.5 33.1 59.4 34 60.5 34C61.6 34 62.5 33.1 62.5 32C62.5 30.9 61.6 30 60.5 30Z" fill="#04AFFF"/>
<path d="M53.9382 18.1715L47.9478 22.1653L49.0572 23.8293L55.0476 19.8355L53.9382 18.1715Z" fill="#04AFFF"/>
<path d="M56.5 22C54.3 22 52.5 20.2 52.5 18C52.5 15.8 54.3 14 56.5 14C58.7 14 60.5 15.8 60.5 18C60.5 20.2 58.7 22 56.5 22ZM56.5 16C55.4 16 54.5 16.9 54.5 18C54.5 19.1 55.4 20 56.5 20C57.6 20 58.5 19.1 58.5 18C58.5 16.9 57.6 16 56.5 16Z" fill="#04AFFF"/>
<path d="M46.5 12C44.3 12 42.5 10.2 42.5 8C42.5 5.8 44.3 4 46.5 4C48.7 4 50.5 5.8 50.5 8C50.5 10.2 48.7 12 46.5 12ZM46.5 6C45.4 6 44.5 6.9 44.5 8C44.5 9.1 45.4 10 46.5 10C47.6 10 48.5 9.1 48.5 8C48.5 6.9 47.6 6 46.5 6Z" fill="#04AFFF"/>
<path d="M33.5 7H31.5V14H33.5V7Z" fill="#04AFFF"/>
<path d="M44.6634 9.4513L40.6696 15.4417L42.3336 16.5511L46.3274 10.5607L44.6634 9.4513Z" fill="#04AFFF"/>
<path d="M32.5 8C30.3 8 28.5 6.2 28.5 4C28.5 1.8 30.3 0 32.5 0C34.7 0 36.5 1.8 36.5 4C36.5 6.2 34.7 8 32.5 8ZM32.5 2C31.4 2 30.5 2.9 30.5 4C30.5 5.1 31.4 6 32.5 6C33.6 6 34.5 5.1 34.5 4C34.5 2.9 33.6 2 32.5 2Z" fill="#04AFFF"/>
<path d="M49.0612 40.1684L47.9518 41.8326L53.943 45.8264L55.0524 44.1622L49.0612 40.1684Z" fill="#04AFFF"/>
<path d="M56.5 50C54.3 50 52.5 48.2 52.5 46C52.5 43.8 54.3 42 56.5 42C58.7 42 60.5 43.8 60.5 46C60.5 48.2 58.7 50 56.5 50ZM56.5 44C55.4 44 54.5 44.9 54.5 46C54.5 47.1 55.4 48 56.5 48C57.6 48 58.5 47.1 58.5 46C58.5 44.9 57.6 44 56.5 44Z" fill="#04AFFF"/>
<path d="M46.5 60C44.3 60 42.5 58.2 42.5 56C42.5 53.8 44.3 52 46.5 52C48.7 52 50.5 53.8 50.5 56C50.5 58.2 48.7 60 46.5 60ZM46.5 54C45.4 54 44.5 54.9 44.5 56C44.5 57.1 45.4 58 46.5 58C47.6 58 48.5 57.1 48.5 56C48.5 54.9 47.6 54 46.5 54Z" fill="#04AFFF"/>
<path d="M42.3373 47.4522L40.6731 48.5616L44.6669 54.5528L46.3311 53.4434L42.3373 47.4522Z" fill="#04AFFF"/>
<path d="M15.939 40.1699L9.9486 44.1637L11.058 45.8277L17.0484 41.8339L15.939 40.1699Z" fill="#04AFFF"/>
<path d="M8.5 50C6.3 50 4.5 48.2 4.5 46C4.5 43.8 6.3 42 8.5 42C10.7 42 12.5 43.8 12.5 46C12.5 48.2 10.7 50 8.5 50ZM8.5 44C7.4 44 6.5 44.9 6.5 46C6.5 47.1 7.4 48 8.5 48C9.6 48 10.5 47.1 10.5 46C10.5 44.9 9.6 44 8.5 44Z" fill="#04AFFF"/>
<path d="M18.5 60C16.3 60 14.5 58.2 14.5 56C14.5 53.8 16.3 52 18.5 52C20.7 52 22.5 53.8 22.5 56C22.5 58.2 20.7 60 18.5 60ZM18.5 54C17.4 54 16.5 54.9 16.5 56C16.5 57.1 17.4 58 18.5 58C19.6 58 20.5 57.1 20.5 56C20.5 54.9 19.6 54 18.5 54Z" fill="#04AFFF"/>
<path d="M33.5 50H31.5V57H33.5V50Z" fill="#04AFFF"/>
<path d="M22.6626 47.4496L18.6688 53.44L20.3328 54.5494L24.3266 48.559L22.6626 47.4496Z" fill="#04AFFF"/>
<path d="M32.5 64C30.3 64 28.5 62.2 28.5 60C28.5 57.8 30.3 56 32.5 56C34.7 56 36.5 57.8 36.5 60C36.5 62.2 34.7 64 32.5 64ZM32.5 58C31.4 58 30.5 58.9 30.5 60C30.5 61.1 31.4 62 32.5 62C33.6 62 34.5 61.1 34.5 60C34.5 58.9 33.6 58 32.5 58Z" fill="#04AFFF"/>
<path d="M32.5 41C29.7 41 27.5 38.8 27.5 36H29.5C29.5 37.7 30.8 39 32.5 39C34.2 39 35.5 37.7 35.5 36C35.5 34.7 34.4 34.1 32.5 33.1L31.5 32.6C29.6 31.7 27.4 30.6 27.4 27.9C27.4 25.1 29.6 22.9 32.4 22.9C35.2 22.9 37.4 25.1 37.4 27.9H35.4C35.4 26.2 34.1 24.9 32.4 24.9C30.7 24.9 29.4 26.2 29.4 27.9C29.4 29.2 30.5 29.8 32.4 30.8L33.4 31.3C35.3 32.2 37.5 33.3 37.5 36C37.5 38.8 35.3 41 32.5 41Z" fill="#04AFFF"/>
<path d="M33.5 21H31.5V24H33.5V21Z" fill="#04AFFF"/>
<path d="M33.5 40H31.5V43H33.5V40Z" fill="#04AFFF"/>
<path d="M25.5 31H23.5V33H25.5V31Z" fill="#04AFFF"/>
<path d="M41.5 31H39.5V33H41.5V31Z" fill="#04AFFF"/>
<path d="M32.5 48C23.7 48 16.5 40.8 16.5 32C16.5 23.2 23.7 16 32.5 16C41.3 16 48.5 23.2 48.5 32C48.5 40.8 41.3 48 32.5 48ZM32.5 18C24.8 18 18.5 24.3 18.5 32C18.5 39.7 24.8 46 32.5 46C40.2 46 46.5 39.7 46.5 32C46.5 24.3 40.2 18 32.5 18Z" fill="#04AFFF"/>
</svg>
